<svg width="45" height="46" viewBox="0 0 45 46" fill="none" xmlns="http://www.w3.org/2000/svg">
<path d="M30 11.75H35.625C36.1223 11.75 36.5992 11.9475 36.9508 12.2992C37.3025 12.6508 37.5 13.1277 37.5 13.625V34.25C37.5 35.2446 37.1049 36.1984 36.4016 36.9016C35.6984 37.6049 34.7446 38 33.75 38M33.75 38C32.7554 38 31.8016 37.6049 31.0984 36.9016C30.3951 36.1984 30 35.2446 30 34.25V9.875C30 9.37772 29.8025 8.90081 29.4508 8.54918C29.0992 8.19754 28.6223 8 28.125 8H9.375C8.87772 8 8.40081 8.19754 8.04918 8.54918C7.69754 8.90081 7.5 9.37772 7.5 9.875V32.375C7.5 33.8668 8.09263 35.2976 9.14752 36.3525C10.2024 37.4074 11.6332 38 13.125 38H33.75Z" stroke="#212121" stroke-width="3.95903" stroke-linecap="round" stroke-linejoin="round"/>
<path d="M15 15.5H22.5" stroke="#212121" stroke-width="3.95903" stroke-linecap="round" stroke-linejoin="round"/>
<path d="M15 23H22.5" stroke="#212121" stroke-width="3.95903" stroke-linecap="round" stroke-linejoin="round"/>
<path d="M15 30.5H22.5" stroke="#212121" stroke-width="3.95903" stroke-linecap="round" stroke-linejoin="round"/>
</svg>
