<svg width="45" height="46" viewBox="0 0 45 46" fill="none" xmlns="http://www.w3.org/2000/svg">
<path d="M45 10.1429V11.75C45 11.9631 44.921 12.1675 44.7803 12.3182C44.6397 12.4689 44.4489 12.5536 44.25 12.5536H42V13.7589C42 14.4246 41.4963 14.9643 40.875 14.9643H4.125C3.50372 14.9643 3 14.4246 3 13.7589V12.5536H0.75C0.551088 12.5536 0.360322 12.4689 0.21967 12.3182C0.0790176 12.1675 0 11.9631 0 11.75V10.1429C1.07263e-06 9.9839 0.0440136 9.8285 0.126469 9.69633C0.208924 9.56416 0.326117 9.46117 0.463219 9.40038L22.2132 0.561099C22.3968 0.479634 22.6032 0.479634 22.7868 0.561099L44.5368 9.40038C44.6739 9.46117 44.7911 9.56416 44.8735 9.69633C44.956 9.8285 45 9.9839 45 10.1429ZM42.75 40.6786H2.25C1.00734 40.6786 0 41.7579 0 43.0893V44.6964C0 44.9095 0.0790176 45.1139 0.21967 45.2646C0.360322 45.4153 0.551088 45.5 0.75 45.5H44.25C44.4489 45.5 44.6397 45.4153 44.7803 45.2646C44.921 45.1139 45 44.9095 45 44.6964V43.0893C45 41.7579 43.9927 40.6786 42.75 40.6786ZM7.5 16.5714V35.8571H4.125C3.50372 35.8571 3 36.3968 3 37.0625V39.0714H42V37.0625C42 36.3968 41.4963 35.8571 40.875 35.8571H37.5V16.5714H31.5V35.8571H25.5V16.5714H19.5V35.8571H13.5V16.5714H7.5Z" fill="#212121"/>
</svg>
