<svg width="45" height="46" viewBox="0 0 45 46" fill="none" xmlns="http://www.w3.org/2000/svg">
<path fill-rule="evenodd" clip-rule="evenodd" d="M41 4V33.0588H35.5714V39.7647H39.6429V42H9.78572C7.80429 42 5.90429 41.2847 4.60142 40.0329C3.57001 39.0271 3 37.7306 3 36.4118V9.58824C3 6.50353 6.04 4 9.78572 4H41ZM32.8572 33.0588H10.0843C7.94 33.0588 6.09429 34.2659 5.76857 35.8306C5.74142 36.0094 5.71428 36.1882 5.71428 36.3447V36.4118C5.71428 37.2165 6.04 37.9765 6.69143 38.58C7.45144 39.34 8.59143 39.7647 9.78572 39.7647H32.8572V37.5294H8.75428V35.2941H32.8572V33.0588ZM31.5 21.8823H12.5V24.1177H31.5L31.5 21.8823ZM32.8572 10.7059H11.1428V19.6471H32.8572V10.7059ZM13.8572 17.4118H30.1429V12.9412H13.8572V17.4118Z" fill="#212121"/>
</svg>
