<svg width="15" height="10" viewBox="0 0 15 10" fill="none" xmlns="http://www.w3.org/2000/svg">
<path d="M1.28267 8.21741C1.21135 8.14913 1.12724 8.0956 1.03517 8.05991C0.852579 7.98489 0.64777 7.98489 0.465174 8.05991C0.373111 8.0956 0.289002 8.14913 0.217674 8.21741C0.149394 8.28874 0.0958702 8.37285 0.0601744 8.46491C0.0027398 8.60149 -0.0129522 8.75203 0.0150784 8.89752C0.043109 9.04301 0.113606 9.17694 0.217674 9.28241C0.290575 9.34866 0.374286 9.40193 0.465174 9.43991C0.55495 9.47959 0.652021 9.50008 0.750174 9.50008C0.848328 9.50008 0.945399 9.47959 1.03517 9.43991C1.12606 9.40193 1.20977 9.34866 1.28267 9.28241C1.38674 9.17694 1.45724 9.04301 1.48527 8.89752C1.5133 8.75203 1.49761 8.60149 1.44017 8.46491C1.40448 8.37285 1.35095 8.28874 1.28267 8.21741ZM3.75017 1.99991H14.2502C14.4491 1.99991 14.6399 1.92089 14.7805 1.78024C14.9212 1.63959 15.0002 1.44882 15.0002 1.24991C15.0002 1.051 14.9212 0.860231 14.7805 0.719579C14.6399 0.578926 14.4491 0.499908 14.2502 0.499908H3.75017C3.55126 0.499908 3.3605 0.578926 3.21984 0.719579C3.07919 0.860231 3.00017 1.051 3.00017 1.24991C3.00017 1.44882 3.07919 1.63959 3.21984 1.78024C3.3605 1.92089 3.55126 1.99991 3.75017 1.99991ZM1.28267 4.46741C1.17721 4.36334 1.04328 4.29284 0.897785 4.26481C0.752293 4.23678 0.601757 4.25247 0.465174 4.30991C0.374286 4.34789 0.290575 4.40116 0.217674 4.46741C0.149394 4.53874 0.0958702 4.62284 0.0601744 4.71491C0.0204955 4.80468 0 4.90176 0 4.99991C0 5.09806 0.0204955 5.19513 0.0601744 5.28491C0.0981558 5.3758 0.151426 5.45951 0.217674 5.53241C0.290575 5.59866 0.374286 5.65193 0.465174 5.68991C0.55495 5.72959 0.652021 5.75008 0.750174 5.75008C0.848328 5.75008 0.945399 5.72959 1.03517 5.68991C1.12606 5.65193 1.20977 5.59866 1.28267 5.53241C1.34892 5.45951 1.40219 5.3758 1.44017 5.28491C1.47985 5.19513 1.50035 5.09806 1.50035 4.99991C1.50035 4.90176 1.47985 4.80468 1.44017 4.71491C1.40448 4.62284 1.35095 4.53874 1.28267 4.46741ZM14.2502 4.24991H3.75017C3.55126 4.24991 3.3605 4.32893 3.21984 4.46958C3.07919 4.61023 3.00017 4.801 3.00017 4.99991C3.00017 5.19882 3.07919 5.38959 3.21984 5.53024C3.3605 5.67089 3.55126 5.74991 3.75017 5.74991H14.2502C14.4491 5.74991 14.6399 5.67089 14.7805 5.53024C14.9212 5.38959 15.0002 5.19882 15.0002 4.99991C15.0002 4.801 14.9212 4.61023 14.7805 4.46958C14.6399 4.32893 14.4491 4.24991 14.2502 4.24991ZM1.28267 0.717408C1.21135 0.649128 1.12724 0.595604 1.03517 0.559908C0.898591 0.502474 0.748056 0.486782 0.602564 0.514813C0.457072 0.542843 0.323142 0.61334 0.217674 0.717408C0.151426 0.790309 0.0981558 0.87402 0.0601744 0.964908C0.0204955 1.05468 0 1.15176 0 1.24991C0 1.34806 0.0204955 1.44513 0.0601744 1.53491C0.0981558 1.6258 0.151426 1.70951 0.217674 1.78241C0.290575 1.84866 0.374286 1.90193 0.465174 1.93991C0.601757 1.99734 0.752293 2.01303 0.897785 1.985C1.04328 1.95697 1.17721 1.88648 1.28267 1.78241C1.34892 1.70951 1.40219 1.6258 1.44017 1.53491C1.47985 1.44513 1.50035 1.34806 1.50035 1.24991C1.50035 1.15176 1.47985 1.05468 1.44017 0.964908C1.40219 0.87402 1.34892 0.790309 1.28267 0.717408ZM14.2502 7.99991H3.75017C3.55126 7.99991 3.3605 8.07893 3.21984 8.21958C3.07919 8.36023 3.00017 8.551 3.00017 8.74991C3.00017 8.94882 3.07919 9.13959 3.21984 9.28024C3.3605 9.42089 3.55126 9.49991 3.75017 9.49991H14.2502C14.4491 9.49991 14.6399 9.42089 14.7805 9.28024C14.9212 9.13959 15.0002 8.94882 15.0002 8.74991C15.0002 8.551 14.9212 8.36023 14.7805 8.21958C14.6399 8.07893 14.4491 7.99991 14.2502 7.99991Z" fill="white"/>
</svg>
