<svg width="40" height="40" viewBox="0 0 40 40" fill="none" xmlns="http://www.w3.org/2000/svg">
<path d="M22.29 0.840315C21.005 -0.280105 18.995 -0.280105 17.71 0.840315L1.56493 14.9177C0.566 15.7887 0 17.0006 0 18.2684V35.3888C0 37.9354 2.23857 40 5 40H10C12.7614 40 15 37.9354 15 35.3888V27.7036C15 26.8548 15.7462 26.1666 16.6667 26.1666H23.3333C24.2538 26.1666 25 26.8548 25 27.7036V35.3888C25 37.9354 27.2387 40 30 40H35C37.7613 40 40 37.9354 40 35.3888V18.2684C40 17.0006 39.434 15.7887 38.435 14.9177L22.29 0.840315Z" fill="#212121"/>
</svg>
