<svg width="31" height="30" viewBox="0 0 31 30" fill="none" xmlns="http://www.w3.org/2000/svg">
<path d="M20.0107 7.5H23.7607C24.0923 7.5 24.4102 7.6317 24.6446 7.86612C24.879 8.10054 25.0107 8.41848 25.0107 8.75V22.5C25.0107 23.163 24.7473 23.7989 24.2785 24.2678C23.8097 24.7366 23.1738 25 22.5107 25M22.5107 25C21.8477 25 21.2118 24.7366 20.743 24.2678C20.2741 23.7989 20.0107 23.163 20.0107 22.5V6.25C20.0107 5.91848 19.879 5.60054 19.6446 5.36612C19.4102 5.1317 19.0923 5 18.7607 5H6.26074C5.92922 5 5.61128 5.1317 5.37686 5.36612C5.14244 5.60054 5.01074 5.91848 5.01074 6.25V21.25C5.01074 22.2446 5.40583 23.1984 6.10909 23.9017C6.81235 24.6049 7.76618 25 8.76074 25H22.5107Z" stroke="#F5F5F5" stroke-opacity="0.75" stroke-width="3.95903" stroke-linecap="round" stroke-linejoin="round"/>
<path d="M10.0107 10H15.0107" stroke="#F5F5F5" stroke-opacity="0.75" stroke-width="3.95903" stroke-linecap="round" stroke-linejoin="round"/>
<path d="M10.0107 15H15.0107" stroke="#F5F5F5" stroke-opacity="0.75" stroke-width="3.95903" stroke-linecap="round" stroke-linejoin="round"/>
<path d="M10.0107 20H15.0107" stroke="#F5F5F5" stroke-opacity="0.75" stroke-width="3.95903" stroke-linecap="round" stroke-linejoin="round"/>
</svg>
