<svg width="27" height="26" viewBox="0 0 27 26" fill="none" xmlns="http://www.w3.org/2000/svg">
<path d="M26.7964 5.85715V6.75001C26.7964 6.86841 26.7494 6.98196 26.6657 7.06568C26.582 7.14941 26.4684 7.19644 26.35 7.19644H25.0107V7.86608C25.0107 8.23589 24.7109 8.53572 24.3411 8.53572H2.4661C2.09629 8.53572 1.79646 8.23589 1.79646 7.86608V7.19644H0.457171C0.33877 7.19644 0.22522 7.14941 0.141498 7.06568C0.0577764 6.98196 0.0107422 6.86841 0.0107422 6.75001V5.85715C0.0107428 5.76883 0.0369407 5.6825 0.0860212 5.60907C0.135102 5.53564 0.204859 5.47843 0.286467 5.44465L13.2329 0.533944C13.3422 0.488685 13.465 0.488685 13.5743 0.533944L26.5207 5.44465C26.6023 5.47843 26.6721 5.53564 26.7212 5.60907C26.7702 5.6825 26.7964 5.76883 26.7964 5.85715ZM25.4572 22.8214H1.35003C0.610351 22.8214 0.0107422 23.421 0.0107422 24.1607V25.0536C0.0107422 25.172 0.0577764 25.2855 0.141498 25.3692C0.22522 25.453 0.33877 25.5 0.457171 25.5H26.35C26.4684 25.5 26.582 25.453 26.6657 25.3692C26.7494 25.2855 26.7964 25.172 26.7964 25.0536V24.1607C26.7964 23.421 26.1968 22.8214 25.4572 22.8214ZM4.47503 9.42858V20.1429H2.4661C2.09629 20.1429 1.79646 20.4427 1.79646 20.8125V21.9286H25.0107V20.8125C25.0107 20.4427 24.7109 20.1429 24.3411 20.1429H22.3322V9.42858H18.7607V20.1429H15.1893V9.42858H11.6179V20.1429H8.04645V9.42858H4.47503Z" fill="#F5F5F5" fill-opacity="0.75"/>
</svg>
