<svg width="120" height="103" viewBox="0 0 120 103" fill="none" xmlns="http://www.w3.org/2000/svg">
<path d="M112.189 0.899414H98.1746C96.3161 0.899414 94.5338 1.56748 93.2196 2.75664C91.9055 3.94579 91.1672 5.55864 91.1672 7.24036C91.1672 8.92209 91.9055 10.5349 93.2196 11.7241C94.5338 12.9132 96.3161 13.5813 98.1746 13.5813H105.182V89.6727H98.1746C96.3161 89.6727 94.5338 90.3407 93.2196 91.5299C91.9055 92.7191 91.1672 94.3319 91.1672 96.0136C91.1672 97.6954 91.9055 99.3082 93.2196 100.497C94.5338 101.687 96.3161 102.355 98.1746 102.355H112.189C114.048 102.355 115.83 101.687 117.144 100.497C118.458 99.3082 119.197 97.6954 119.197 96.0136V7.24036C119.197 5.55864 118.458 3.94579 117.144 2.75664C115.83 1.56748 114.048 0.899414 112.189 0.899414Z" fill="#0079C0"/>
<path d="M61.7365 22.4585C60.6214 21.1131 58.9614 20.2237 57.1216 19.9859C55.2818 19.748 53.413 20.1813 51.9262 21.1903C50.4395 22.1994 49.4566 23.7015 49.1937 25.3663C48.9309 27.0312 49.4097 28.7223 50.5248 30.0677L63.138 45.2859H7.07935C5.22089 45.2859 3.43855 45.954 2.12442 47.1432C0.810291 48.3323 0.0720215 49.9452 0.0720215 51.6269C0.0720215 53.3086 0.810291 54.9215 2.12442 56.1106C3.43855 57.2998 5.22089 57.9678 7.07935 57.9678H63.138H63.7686L51.716 73.4397C51.1783 74.1213 50.7951 74.8924 50.5885 75.7087C50.382 76.525 50.3561 77.3702 50.5125 78.1956C50.6688 79.0209 51.0043 79.8101 51.4995 80.5175C51.9947 81.2249 52.6399 81.8365 53.3978 82.3171C54.589 83.0696 56.0093 83.4684 57.462 83.4584C58.5737 83.4538 59.6683 83.2098 60.6552 82.7468C61.6421 82.2837 62.4932 81.6148 63.138 80.7952L82.8986 55.4315C83.7756 54.3455 84.2482 53.0353 84.2482 51.6903C84.2482 50.3453 83.7756 49.0351 82.8986 47.9491L61.7365 22.4585Z" fill="#0079C0"/>
</svg>
