<svg width="20" height="21" viewBox="0 0 20 21" fill="none" xmlns="http://www.w3.org/2000/svg">
<path fill-rule="evenodd" clip-rule="evenodd" d="M8.85645 0.955838C9.03427 1.08118 9.19905 1.23118 9.34717 1.40292C9.53365 1.63633 9.70218 1.88901 9.85082 2.15834C10.0212 2.47422 10.1638 2.81 10.277 3.16042C10.3816 3.59625 10.4295 4.04857 10.419 4.50166C10.4376 5.30348 10.2531 6.09344 9.88956 6.76792C9.70876 7.04542 9.52796 7.29208 9.34717 7.52333L8.67566 8.23249C8.52676 8.39653 8.39646 8.58307 8.28824 8.78749C8.1573 9.00209 8.08925 9.26218 8.09454 9.5275C8.08551 9.7774 8.15988 10.0213 8.30116 10.2058C8.40757 10.3654 8.52406 10.5149 8.64984 10.6529L9.42466 11.3929C9.8933 11.8317 10.3179 12.3335 10.6902 12.8883C11.0566 13.5334 11.246 14.2983 11.2326 15.0775C11.2007 16.4163 10.6525 17.6623 9.7475 18.4538C8.47253 19.5747 6.91242 20.1357 5.331 20.0417C4.0484 20.1396 2.77536 19.7216 1.71514 18.8546C0.981897 18.2945 0.531335 17.3343 0.51416 16.2954C0.530561 15.7241 0.668347 15.1671 0.914484 14.6767C1.2279 14 1.70494 13.452 2.28335 13.1042C3.01711 12.6172 3.81711 12.2883 4.64656 12.1329C5.31808 12.0096 5.99502 11.9323 6.67402 11.9017C6.50137 11.6476 6.34989 11.374 6.22204 11.0846C6.06514 10.785 5.98856 10.4354 6.00251 10.0825C5.99773 9.88316 6.02394 9.6846 6.07999 9.49667C6.13165 9.32709 6.1833 9.18834 6.22204 9.04959C5.96377 9.08042 5.71841 9.09584 5.48596 9.09584C4.43478 9.16197 3.41162 8.67789 2.68367 7.77C2.03876 7.04002 1.67433 6.02514 1.6764 4.96417C1.70404 3.60303 2.22175 2.32222 3.09691 1.44917C3.69133 0.867808 4.3892 0.456493 5.13729 0.246672C5.78298 0.086339 6.44067 0.0037 7.10018 0H11.6975L10.2641 0.955838H8.85645ZM6.54489 8.38667C7.11258 8.37711 7.65663 8.11302 8.06871 7.64667C8.24537 7.33432 8.36831 6.98329 8.4303 6.61375C8.45612 6.25917 8.48195 5.96625 8.48195 5.71958C8.46878 4.62376 8.22936 3.54876 7.78461 2.59C7.58031 2.10006 7.2842 1.67271 6.91939 1.34125C6.55264 1.04633 6.12183 0.885687 5.67967 0.878749C5.07995 0.874895 4.50891 1.18478 4.1171 1.72667C3.77398 2.29585 3.59707 2.98374 3.61347 3.68458C3.63697 4.73615 3.89072 5.76198 4.34955 6.66C4.58045 7.13807 4.89283 7.55293 5.26643 7.87792C5.63292 8.21323 6.08309 8.39237 6.54489 8.38667ZM9.73459 16.1104C9.73872 15.4643 9.53533 14.841 9.16638 14.3683C8.58087 13.7242 7.95003 13.1413 7.28097 12.6263C7.12601 12.6108 6.95813 12.6108 6.76442 12.6108C6.46262 12.6025 6.16057 12.6179 5.86046 12.6571C5.36715 12.7376 4.8794 12.8612 4.40121 13.0271C4.28498 13.0887 4.1171 13.1658 3.91048 13.2583C3.67467 13.3832 3.45334 13.5439 3.25188 13.7363C3.03506 13.9616 2.85542 14.2336 2.72241 14.5379C2.54343 14.9018 2.45394 15.3186 2.46414 15.7404C2.47421 16.6767 2.88952 17.5399 3.56181 18.0221C4.41037 18.6747 5.40732 18.9978 6.41575 18.9471C7.29828 18.9986 8.17138 18.7123 8.90811 18.13C9.43951 17.6546 9.74699 16.903 9.73459 16.1104ZM19.8848 5.16458H16.863V8.94167H15.9074V5.16458H12.8597V3.9775H15.9074V0.26208H16.863V3.9775H19.8848V5.16458Z" fill="#003366"/>
</svg>
