<svg width="20" height="21" viewBox="0 0 20 21" fill="none" xmlns="http://www.w3.org/2000/svg">
<path fill-rule="evenodd" clip-rule="evenodd" d="M8.85657 0.955838C9.0344 1.08118 9.19917 1.23118 9.34729 1.40292C9.53377 1.63633 9.7023 1.88901 9.85094 2.15834C10.0213 2.47422 10.164 2.81 10.2771 3.16042C10.3817 3.59625 10.4296 4.04857 10.4191 4.50166C10.4377 5.30348 10.2532 6.09344 9.88968 6.76792C9.70889 7.04542 9.52809 7.29208 9.34729 7.52333L8.67578 8.23249C8.52689 8.39653 8.39658 8.58307 8.28837 8.78749C8.15742 9.00209 8.08937 9.26218 8.09467 9.5275C8.08563 9.7774 8.16 10.0213 8.30128 10.2058C8.40769 10.3654 8.52418 10.5149 8.64996 10.6529L9.42478 11.3929C9.89342 11.8317 10.318 12.3335 10.6903 12.8883C11.0567 13.5334 11.2461 14.2983 11.2327 15.0775C11.2008 16.4163 10.6526 17.6623 9.74763 18.4538C8.47265 19.5747 6.91254 20.1357 5.33112 20.0417C4.04853 20.1396 2.77548 19.7216 1.71526 18.8546C0.982019 18.2945 0.531458 17.3343 0.514282 16.2954C0.530683 15.7241 0.668469 15.1671 0.914606 14.6767C1.22802 14 1.70506 13.452 2.28347 13.1042C3.01723 12.6172 3.81723 12.2883 4.64668 12.1329C5.3182 12.0096 5.99514 11.9323 6.67414 11.9017C6.50149 11.6476 6.35001 11.374 6.22216 11.0846C6.06526 10.785 5.98869 10.4354 6.00263 10.0825C5.99786 9.88316 6.02407 9.6846 6.08011 9.49667C6.13177 9.32709 6.18342 9.18834 6.22216 9.04959C5.96389 9.08042 5.71853 9.09584 5.48608 9.09584C4.4349 9.16197 3.41174 8.67789 2.6838 7.77C2.03888 7.04002 1.67446 6.02514 1.67652 4.96417C1.70416 3.60303 2.22187 2.32222 3.09704 1.44917C3.69146 0.867808 4.38932 0.456493 5.13741 0.246672C5.7831 0.086339 6.4408 0.0037 7.1003 0H11.6976L10.2642 0.955838H8.85657ZM6.54501 8.38667C7.1127 8.37711 7.65675 8.11302 8.06883 7.64667C8.24549 7.33432 8.36843 6.98329 8.43042 6.61375C8.45624 6.25917 8.48207 5.96625 8.48207 5.71958C8.4689 4.62376 8.22948 3.54876 7.78473 2.59C7.58043 2.10006 7.28432 1.67271 6.91951 1.34125C6.55276 1.04633 6.12196 0.885687 5.67979 0.878749C5.08007 0.874895 4.50903 1.18478 4.11722 1.72667C3.77411 2.29585 3.59719 2.98374 3.61359 3.68458C3.63709 4.73615 3.89085 5.76198 4.34967 6.66C4.58057 7.13807 4.89295 7.55293 5.26655 7.87792C5.63304 8.21323 6.08321 8.39237 6.54501 8.38667ZM9.73471 16.1104C9.73884 15.4643 9.53545 14.841 9.1665 14.3683C8.58099 13.7242 7.95016 13.1413 7.28109 12.6263C7.12613 12.6108 6.95825 12.6108 6.76454 12.6108C6.46275 12.6025 6.1607 12.6179 5.86058 12.6571C5.36728 12.7376 4.87953 12.8612 4.40133 13.0271C4.2851 13.0887 4.11722 13.1658 3.9106 13.2583C3.67479 13.3832 3.45346 13.5439 3.252 13.7363C3.03518 13.9616 2.85555 14.2336 2.72253 14.5379C2.54355 14.9018 2.45406 15.3186 2.46426 15.7404C2.47434 16.6767 2.88964 17.5399 3.56193 18.0221C4.4105 18.6747 5.40744 18.9978 6.41587 18.9471C7.2984 18.9986 8.1715 18.7123 8.90823 18.13C9.43963 17.6546 9.74711 16.903 9.73471 16.1104ZM19.8849 5.16458H16.8631V8.94167H15.9075V5.16458H12.8598V3.9775H15.9075V0.26208H16.8631V3.9775H19.8849V5.16458Z" fill="#003366"/>
</svg>
