<svg width="19" height="16" viewBox="0 0 19 16" fill="none" xmlns="http://www.w3.org/2000/svg">
<path fill-rule="evenodd" clip-rule="evenodd" d="M18.2883 9.09583C17.6703 9.01675 17.0656 8.82974 16.4932 8.54083C17.2435 8.52989 17.9663 8.20213 18.5336 7.61584C17.8268 7.61954 17.1243 7.48418 16.4545 7.215C16.2527 6.2382 15.7192 5.40601 14.9823 4.91792C13.4992 3.91229 11.6149 4.50028 10.7337 6.24375C10.6183 6.48364 10.5231 6.73678 10.4496 6.99917C8.36519 5.44347 6.94041 2.89479 6.53673 0C6.06189 0.312496 5.66518 0.770063 5.3874 1.32583C4.86323 2.36553 4.82901 3.65575 5.29701 4.73292C4.87512 4.43954 4.52025 4.02653 4.26391 3.53042C4.26391 3.54583 4.25099 3.56125 4.25099 3.57667C3.51594 5.06622 3.78274 6.9708 4.88377 8.09375C4.61852 8.00665 4.3627 7.88239 4.12186 7.72375C3.95062 7.61183 3.79036 7.47739 3.64405 7.32292C3.36898 8.84732 3.94778 10.4096 5.07748 11.1925C3.69557 11.4208 2.28926 11.1012 1.07421 10.2829C0.861 10.1361 0.654122 9.97674 0.454346 9.805C1.23059 11.5651 2.41982 13.0171 3.8765 13.9829C8.08768 16.8644 13.4561 15.1919 15.9509 10.2212L16.1446 9.805C16.8878 9.71635 17.6127 9.47647 18.2883 9.09583Z" fill="#003366"/>
</svg>
