<svg width="31" height="68" viewBox="0 0 31 68" fill="none" xmlns="http://www.w3.org/2000/svg">
<path d="M5.22123 0.000312805C5.8616 -0.00212097 6.49431 0.155685 7.07289 0.462135C7.65146 0.768578 8.16119 1.21587 8.56462 1.77116L29.2679 30.4875C29.8984 31.3439 30.243 32.4181 30.243 33.5267C30.243 34.6352 29.8984 35.7094 29.2679 36.5658L7.83593 65.2822C7.10837 66.2596 6.06287 66.8742 4.92943 66.9909C3.79599 67.1076 2.66746 66.7168 1.79211 65.9044C0.916754 65.092 0.366278 63.9246 0.261776 62.6591C0.157274 61.3935 0.507309 60.1334 1.23488 59.156L20.3951 33.5027L1.87784 7.84945C1.35368 7.14693 1.02073 6.29147 0.918371 5.38427C0.816015 4.47708 0.948536 3.55613 1.30026 2.7304C1.65199 1.90467 2.20819 1.20872 2.90306 0.724899C3.59793 0.241074 4.40238 -0.0103683 5.22123 0.000312805Z" fill="white" fill-opacity="0.6"/>
</svg>
