<svg width="31" height="68" viewBox="0 0 31 68" fill="none" xmlns="http://www.w3.org/2000/svg">
<path d="M25.3343 67.0109C24.6939 67.0133 24.0612 66.8555 23.4827 66.549C22.9041 66.2426 22.3944 65.7953 21.9909 65.24L1.2876 36.5236C0.657153 35.6673 0.3125 34.5931 0.3125 33.4845C0.3125 32.3759 0.657153 31.3017 1.2876 30.4453L22.7196 1.72898C23.4472 0.751582 24.4927 0.136935 25.6261 0.0202522C26.7596 -0.0964307 27.8881 0.294408 28.7634 1.10679C29.6388 1.91917 30.1893 3.08654 30.2938 4.3521C30.3983 5.61766 30.0482 6.87774 29.3207 7.85513L10.1605 33.5084L28.6777 59.1617C29.2019 59.8642 29.5348 60.7197 29.6372 61.6269C29.7395 62.5341 29.607 63.455 29.2553 64.2808C28.9036 65.1065 28.3474 65.8024 27.6525 66.2863C26.9576 66.7701 26.1532 67.0215 25.3343 67.0109Z" fill="white" fill-opacity="0.6"/>
</svg>
