<svg width="26" height="26" viewBox="0 0 26 26" fill="none" xmlns="http://www.w3.org/2000/svg">
<path fill-rule="evenodd" clip-rule="evenodd" d="M25.7964 0.5V19.6176H22.225V24.0294H24.9035V25.5H5.26067C3.9571 25.5 2.7071 25.0294 1.84995 24.2059C1.17139 23.5441 0.796387 22.6912 0.796387 21.8235V4.17647C0.796387 2.14706 2.79639 0.5 5.26067 0.5H25.7964ZM20.4393 19.6176H5.4571C4.04639 19.6176 2.8321 20.4118 2.61782 21.4412C2.59995 21.5588 2.5821 21.6765 2.5821 21.7794V21.8235C2.5821 22.3529 2.79639 22.8529 3.22496 23.25C3.72497 23.75 4.47496 24.0294 5.26067 24.0294H20.4393V22.5588H4.5821V21.0882H20.4393V19.6176ZM19.5464 12.2647H7.04637V13.7353H19.5464L19.5464 12.2647ZM20.4393 4.91177H6.15352V10.7941H20.4393V4.91177ZM7.93925 9.32353H18.6535V6.38236H7.93925V9.32353Z" fill="#F5F5F5" fill-opacity="0.75"/>
</svg>
