<svg width="1156" height="851" viewBox="0 0 1156 851" fill="none" xmlns="http://www.w3.org/2000/svg">
<g filter="url(#filter0_d_37_79)">
<path d="M1144.88 21.1675C1144.88 15.6446 1140.41 11.1675 1134.88 11.1675H571.324H21C15.4772 11.1675 11 15.6446 11 21.1675V829.667C11 835.19 15.4772 839.667 21 839.667H1134.88C1140.41 839.667 1144.88 835.19 1144.88 829.667V21.1675Z" fill="white"/>
<path d="M1144.88 21.1675C1144.88 15.6446 1140.41 11.1675 1134.88 11.1675H571.324H21C15.4772 11.1675 11 15.6446 11 21.1675V829.667C11 835.19 15.4772 839.667 21 839.667H1134.88C1140.41 839.667 1144.88 835.19 1144.88 829.667V21.1675Z" stroke="#DDDDDD" stroke-width="2"/>
</g>
<defs>
<filter id="filter0_d_37_79" x="0" y="0.16748" width="1155.88" height="850.5" filterUnits="userSpaceOnUse" color-interpolation-filters="sRGB">
<feFlood flood-opacity="0" result="BackgroundImageFix"/>
<feColorMatrix in="SourceAlpha" type="matrix" values="0 0 0 0 0 0 0 0 0 0 0 0 0 0 0 0 0 0 127 0" result="hardAlpha"/>
<feOffset/>
<feGaussianBlur stdDeviation="5"/>
<feComposite in2="hardAlpha" operator="out"/>
<feColorMatrix type="matrix" values="0 0 0 0 0.647059 0 0 0 0 0.647059 0 0 0 0 0.647059 0 0 0 0.75 0"/>
<feBlend mode="normal" in2="BackgroundImageFix" result="effect1_dropShadow_37_79"/>
<feBlend mode="normal" in="SourceGraphic" in2="effect1_dropShadow_37_79" result="shape"/>
</filter>
</defs>
</svg>
