<svg width="26" height="25" viewBox="0 0 26 25" fill="none" xmlns="http://www.w3.org/2000/svg">
<path d="M13.942 0.525197C13.1389 -0.175066 11.8826 -0.175066 11.0795 0.525197L0.988826 9.32356C0.364492 9.86795 0.0107422 10.6254 0.0107422 11.4177V22.118C0.0107422 23.7096 1.40985 25 3.13574 25H6.26074C7.98664 25 9.38574 23.7096 9.38574 22.118V17.3147C9.38574 16.7842 9.85212 16.3541 10.4274 16.3541H14.5941C15.1694 16.3541 15.6357 16.7842 15.6357 17.3147V22.118C15.6357 23.7096 17.0349 25 18.7607 25H21.8857C23.6116 25 25.0107 23.7096 25.0107 22.118V11.4177C25.0107 10.6254 24.657 9.86795 24.0326 9.32356L13.942 0.525197Z" fill="#F5F5F5" fill-opacity="0.7"/>
</svg>
