<svg width="1156" height="850" viewBox="0 0 1156 850" fill="none" xmlns="http://www.w3.org/2000/svg">
<g filter="url(#filter0_d_11_107)">
<path d="M1145 21C1145 15.4771 1140.52 11 1135 11H571.381H21C15.4772 11 11 15.4772 11 21V828.335C11 833.857 15.4772 838.335 21 838.335H1135C1140.52 838.335 1145 833.857 1145 828.335V21Z" fill="white"/>
<path d="M1145 21C1145 15.4771 1140.52 11 1135 11H571.381H21C15.4772 11 11 15.4772 11 21V828.335C11 833.857 15.4772 838.335 21 838.335H1135C1140.52 838.335 1145 833.857 1145 828.335V21Z" stroke="#DDDDDD" stroke-width="2"/>
</g>
<defs>
<filter id="filter0_d_11_107" x="0" y="0" width="1156" height="849.335" filterUnits="userSpaceOnUse" color-interpolation-filters="sRGB">
<feFlood flood-opacity="0" result="BackgroundImageFix"/>
<feColorMatrix in="SourceAlpha" type="matrix" values="0 0 0 0 0 0 0 0 0 0 0 0 0 0 0 0 0 0 127 0" result="hardAlpha"/>
<feOffset/>
<feGaussianBlur stdDeviation="5"/>
<feComposite in2="hardAlpha" operator="out"/>
<feColorMatrix type="matrix" values="0 0 0 0 0.647059 0 0 0 0 0.647059 0 0 0 0 0.647059 0 0 0 0.75 0"/>
<feBlend mode="normal" in2="BackgroundImageFix" result="effect1_dropShadow_11_107"/>
<feBlend mode="normal" in="SourceGraphic" in2="effect1_dropShadow_11_107" result="shape"/>
</filter>
</defs>
</svg>
